<mxfile host="Electron" modified="2024-02-04T08:52:59.464Z" agent="Mozilla/5.0 (Macintosh; Intel Mac OS X 10_15_7) AppleWebKit/537.36 (KHTML, like Gecko) draw.io/23.0.2 Chrome/120.0.6099.109 Electron/28.1.0 Safari/537.36" etag="r_tdqE_NjxwC_BfUiqOt" version="23.0.2" type="device">
  <diagram name="Page-1" id="YG0X-AnomBaUpdD05i4n">
    <mxGraphModel dx="866" dy="557" grid="1" gridSize="10" guides="1" tooltips="1" connect="1" arrows="1" fold="1" page="1" pageScale="1" pageWidth="1169" pageHeight="827" math="0" shadow="0">
      <root>
        <mxCell id="0" />
        <mxCell id="1" parent="0" />
        <mxCell id="edczD1qIezJI3KJJgmSY-8" value="" style="rounded=1;whiteSpace=wrap;html=1;strokeWidth=2;" vertex="1" parent="1">
          <mxGeometry x="110" y="210" width="930" height="470" as="geometry" />
        </mxCell>
        <mxCell id="edczD1qIezJI3KJJgmSY-12" value="" style="rounded=1;whiteSpace=wrap;html=1;dashed=1;dashPattern=12 12;strokeWidth=2;" vertex="1" parent="1">
          <mxGeometry x="210" y="500" width="630" height="170" as="geometry" />
        </mxCell>
        <mxCell id="edczD1qIezJI3KJJgmSY-3" value="Air Quality Index (P2)" style="shape=process;whiteSpace=wrap;html=1;backgroundOutline=1;fillColor=#fff2cc;strokeColor=#d6b656;fontSize=14;fontStyle=1" vertex="1" parent="1">
          <mxGeometry x="460" y="600" width="150" height="60" as="geometry" />
        </mxCell>
        <mxCell id="edczD1qIezJI3KJJgmSY-4" value="Forecast News (P1)" style="shape=process;whiteSpace=wrap;html=1;backgroundOutline=1;fillColor=#fff2cc;strokeColor=#d6b656;fontStyle=1;fontSize=14;" vertex="1" parent="1">
          <mxGeometry x="225" y="598" width="150" height="60" as="geometry" />
        </mxCell>
        <mxCell id="edczD1qIezJI3KJJgmSY-5" value="Indian State Weather Data (P3)" style="shape=process;whiteSpace=wrap;html=1;backgroundOutline=1;fillColor=#fff2cc;strokeColor=#d6b656;fontStyle=1;fontSize=14;" vertex="1" parent="1">
          <mxGeometry x="680" y="600" width="150" height="60" as="geometry" />
        </mxCell>
        <mxCell id="edczD1qIezJI3KJJgmSY-16" style="edgeStyle=orthogonalEdgeStyle;rounded=0;orthogonalLoop=1;jettySize=auto;html=1;entryX=0.5;entryY=0;entryDx=0;entryDy=0;strokeWidth=2;" edge="1" parent="1" source="edczD1qIezJI3KJJgmSY-6" target="edczD1qIezJI3KJJgmSY-3">
          <mxGeometry relative="1" as="geometry" />
        </mxCell>
        <mxCell id="edczD1qIezJI3KJJgmSY-17" style="edgeStyle=orthogonalEdgeStyle;rounded=0;orthogonalLoop=1;jettySize=auto;html=1;entryX=0.5;entryY=0;entryDx=0;entryDy=0;strokeWidth=2;" edge="1" parent="1" source="edczD1qIezJI3KJJgmSY-6" target="edczD1qIezJI3KJJgmSY-5">
          <mxGeometry relative="1" as="geometry" />
        </mxCell>
        <mxCell id="edczD1qIezJI3KJJgmSY-18" value="" style="edgeStyle=orthogonalEdgeStyle;rounded=0;orthogonalLoop=1;jettySize=auto;html=1;" edge="1" parent="1" source="edczD1qIezJI3KJJgmSY-6" target="edczD1qIezJI3KJJgmSY-4">
          <mxGeometry relative="1" as="geometry" />
        </mxCell>
        <mxCell id="edczD1qIezJI3KJJgmSY-19" value="" style="edgeStyle=orthogonalEdgeStyle;rounded=0;orthogonalLoop=1;jettySize=auto;html=1;strokeWidth=2;" edge="1" parent="1" source="edczD1qIezJI3KJJgmSY-6" target="edczD1qIezJI3KJJgmSY-4">
          <mxGeometry relative="1" as="geometry" />
        </mxCell>
        <mxCell id="edczD1qIezJI3KJJgmSY-6" value="Scheduler" style="rounded=1;whiteSpace=wrap;html=1;fillColor=#dae8fc;strokeColor=#6c8ebf;fontStyle=1;fontSize=14;" vertex="1" parent="1">
          <mxGeometry x="240" y="510" width="120" height="60" as="geometry" />
        </mxCell>
        <mxCell id="edczD1qIezJI3KJJgmSY-7" value="Opensearch DB" style="shape=cylinder3;whiteSpace=wrap;html=1;boundedLbl=1;backgroundOutline=1;size=15;fillColor=#d5e8d4;strokeColor=#82b366;fontSize=14;fontStyle=1" vertex="1" parent="1">
          <mxGeometry x="780" y="398" width="160" height="80" as="geometry" />
        </mxCell>
        <mxCell id="edczD1qIezJI3KJJgmSY-10" value="" style="edgeStyle=orthogonalEdgeStyle;rounded=0;orthogonalLoop=1;jettySize=auto;html=1;strokeWidth=2;" edge="1" parent="1" source="edczD1qIezJI3KJJgmSY-9" target="edczD1qIezJI3KJJgmSY-7">
          <mxGeometry relative="1" as="geometry" />
        </mxCell>
        <mxCell id="edczD1qIezJI3KJJgmSY-34" style="edgeStyle=orthogonalEdgeStyle;rounded=0;orthogonalLoop=1;jettySize=auto;html=1;strokeWidth=2;" edge="1" parent="1" source="edczD1qIezJI3KJJgmSY-9" target="edczD1qIezJI3KJJgmSY-32">
          <mxGeometry relative="1" as="geometry" />
        </mxCell>
        <mxCell id="edczD1qIezJI3KJJgmSY-9" value="Weather API" style="rounded=1;whiteSpace=wrap;html=1;fillColor=#dae8fc;strokeColor=#6c8ebf;fontStyle=1;fontSize=14;" vertex="1" parent="1">
          <mxGeometry x="800" y="260" width="120" height="60" as="geometry" />
        </mxCell>
        <mxCell id="edczD1qIezJI3KJJgmSY-11" value="SBI Interface for 3PP, API etc..." style="rounded=0;whiteSpace=wrap;html=1;fillColor=#e1d5e7;strokeColor=#9673a6;fontSize=14;fontStyle=1" vertex="1" parent="1">
          <mxGeometry x="120" y="740" width="920" height="60" as="geometry" />
        </mxCell>
        <mxCell id="edczD1qIezJI3KJJgmSY-14" style="edgeStyle=orthogonalEdgeStyle;rounded=0;orthogonalLoop=1;jettySize=auto;html=1;entryX=0;entryY=0.5;entryDx=0;entryDy=0;entryPerimeter=0;strokeWidth=2;" edge="1" parent="1" source="edczD1qIezJI3KJJgmSY-12" target="edczD1qIezJI3KJJgmSY-7">
          <mxGeometry relative="1" as="geometry" />
        </mxCell>
        <mxCell id="edczD1qIezJI3KJJgmSY-15" value="Main App" style="text;html=1;align=center;verticalAlign=middle;resizable=0;points=[];autosize=1;strokeColor=#d79b00;fillColor=#ffe6cc;fontSize=14;fontStyle=1" vertex="1" parent="1">
          <mxGeometry x="240" y="469" width="90" height="30" as="geometry" />
        </mxCell>
        <mxCell id="edczD1qIezJI3KJJgmSY-20" value="" style="shape=singleArrow;direction=south;whiteSpace=wrap;html=1;fillColor=#1ba1e2;fontColor=#ffffff;strokeColor=#006EAF;" vertex="1" parent="1">
          <mxGeometry x="259" y="670" width="80" height="70" as="geometry" />
        </mxCell>
        <mxCell id="edczD1qIezJI3KJJgmSY-21" value="" style="shape=singleArrow;direction=south;whiteSpace=wrap;html=1;fillColor=#1ba1e2;fontColor=#ffffff;strokeColor=#006EAF;" vertex="1" parent="1">
          <mxGeometry x="495" y="670" width="80" height="70" as="geometry" />
        </mxCell>
        <mxCell id="edczD1qIezJI3KJJgmSY-22" value="" style="shape=singleArrow;direction=south;whiteSpace=wrap;html=1;fillColor=#1ba1e2;strokeColor=#006EAF;fontColor=#ffffff;" vertex="1" parent="1">
          <mxGeometry x="715" y="670" width="80" height="70" as="geometry" />
        </mxCell>
        <mxCell id="edczD1qIezJI3KJJgmSY-24" value="" style="image;aspect=fixed;html=1;points=[];align=center;fontSize=12;image=img/lib/azure2/general/Scheduler.svg;" vertex="1" parent="1">
          <mxGeometry x="220" y="523" width="40" height="40" as="geometry" />
        </mxCell>
        <mxCell id="edczD1qIezJI3KJJgmSY-25" value="" style="image;sketch=0;aspect=fixed;html=1;points=[];align=center;fontSize=12;image=img/lib/mscae/Docker.svg;" vertex="1" parent="1">
          <mxGeometry x="730" y="373" width="50" height="41" as="geometry" />
        </mxCell>
        <mxCell id="edczD1qIezJI3KJJgmSY-26" value="" style="image;sketch=0;aspect=fixed;html=1;points=[];align=center;fontSize=12;image=img/lib/mscae/Docker.svg;" vertex="1" parent="1">
          <mxGeometry x="748" y="250" width="50" height="41" as="geometry" />
        </mxCell>
        <mxCell id="edczD1qIezJI3KJJgmSY-27" value="" style="image;sketch=0;aspect=fixed;html=1;points=[];align=center;fontSize=12;image=img/lib/mscae/Docker.svg;" vertex="1" parent="1">
          <mxGeometry x="180" y="454" width="50" height="41" as="geometry" />
        </mxCell>
        <mxCell id="edczD1qIezJI3KJJgmSY-30" style="edgeStyle=orthogonalEdgeStyle;rounded=0;orthogonalLoop=1;jettySize=auto;html=1;entryX=0.25;entryY=0;entryDx=0;entryDy=0;strokeWidth=2;" edge="1" parent="1" source="edczD1qIezJI3KJJgmSY-29" target="edczD1qIezJI3KJJgmSY-12">
          <mxGeometry relative="1" as="geometry" />
        </mxCell>
        <mxCell id="edczD1qIezJI3KJJgmSY-29" value="Config Map" style="strokeWidth=2;html=1;shape=mxgraph.flowchart.document2;whiteSpace=wrap;size=0.25;fontSize=14;fontStyle=1;fillColor=#f5f5f5;fontColor=#333333;strokeColor=#666666;" vertex="1" parent="1">
          <mxGeometry x="220" y="260" width="140" height="80" as="geometry" />
        </mxCell>
        <mxCell id="edczD1qIezJI3KJJgmSY-33" value="" style="edgeStyle=orthogonalEdgeStyle;rounded=0;orthogonalLoop=1;jettySize=auto;html=1;entryX=0.5;entryY=0;entryDx=0;entryDy=0;entryPerimeter=0;strokeWidth=2;" edge="1" parent="1" source="edczD1qIezJI3KJJgmSY-31" target="edczD1qIezJI3KJJgmSY-29">
          <mxGeometry relative="1" as="geometry" />
        </mxCell>
        <mxCell id="edczD1qIezJI3KJJgmSY-31" value="" style="sketch=0;pointerEvents=1;shadow=0;dashed=0;html=1;strokeColor=none;fillColor=#505050;labelPosition=center;verticalLabelPosition=bottom;verticalAlign=top;outlineConnect=0;align=center;shape=mxgraph.office.users.administrator;" vertex="1" parent="1">
          <mxGeometry x="261" y="70" width="58" height="56" as="geometry" />
        </mxCell>
        <mxCell id="edczD1qIezJI3KJJgmSY-32" value="" style="sketch=0;pointerEvents=1;shadow=0;dashed=0;html=1;strokeColor=none;fillColor=#505050;labelPosition=center;verticalLabelPosition=bottom;verticalAlign=top;outlineConnect=0;align=center;shape=mxgraph.office.services.user_services;" vertex="1" parent="1">
          <mxGeometry x="830" y="67" width="59" height="59" as="geometry" />
        </mxCell>
        <mxCell id="edczD1qIezJI3KJJgmSY-36" value="System &lt;br&gt;Administrator" style="text;html=1;align=center;verticalAlign=middle;resizable=0;points=[];autosize=1;strokeColor=#d79b00;fillColor=#ffe6cc;fontSize=14;fontStyle=1" vertex="1" parent="1">
          <mxGeometry x="330" y="76" width="120" height="50" as="geometry" />
        </mxCell>
        <mxCell id="edczD1qIezJI3KJJgmSY-37" value="NBI Users" style="text;html=1;align=center;verticalAlign=middle;resizable=0;points=[];autosize=1;strokeColor=#d79b00;fillColor=#ffe6cc;fontSize=14;fontStyle=1" vertex="1" parent="1">
          <mxGeometry x="915" y="80" width="90" height="30" as="geometry" />
        </mxCell>
        <mxCell id="edczD1qIezJI3KJJgmSY-38" value="&lt;font style=&quot;font-size: 20px;&quot;&gt;Weather Watch App&amp;nbsp;&lt;/font&gt;" style="text;html=1;align=center;verticalAlign=middle;resizable=0;points=[];autosize=1;strokeColor=#b85450;fillColor=#f8cecc;fontSize=14;fontStyle=1;" vertex="1" parent="1">
          <mxGeometry x="430" y="225" width="220" height="40" as="geometry" />
        </mxCell>
      </root>
    </mxGraphModel>
  </diagram>
</mxfile>
